<svg xmlns="http://www.w3.org/2000/svg" viewBox="0 0 64 64" role="img" aria-label="LoomPress default phoenix favicon">
  <defs>
    <linearGradient id="fav-wing" x1="18" y1="8" x2="56" y2="50" gradientUnits="userSpaceOnUse">
      <stop offset="0" stop-color="#ffadb3"/>
      <stop offset="0.34" stop-color="#ff525d"/>
      <stop offset="1" stop-color="#be0017"/>
    </linearGradient>
    <linearGradient id="fav-body" x1="16" y1="10" x2="28" y2="56" gradientUnits="userSpaceOnUse">
      <stop offset="0" stop-color="#ff7c8b"/>
      <stop offset="1" stop-color="#d20018"/>
    </linearGradient>
  </defs>

  <path d="M24 52C29 45 31 38 31 31C31 24 29 18 25 13C27 13 29 14 31 16C31 12 32 9 35 6C36 10 39 13 42 15C47 19 49 25 49 31C49 38 46 44 40 49C35 54 30 57 24 58Z" fill="url(#fav-body)"/>
  <path d="M27 36C34 28 42 23 57 14C54 23 49 28 43 31C48 32 53 35 57 39C48 39 41 41 36 45C32 48 28 53 25 57C22 53 22 48 23 44C24 41 25 38 27 36Z" fill="url(#fav-wing)"/>
  <path d="M24 33C24 27 26 22 30 17C34 12 39 9 44 8C42 14 39 19 34 22C39 22 43 24 46 27C41 28 37 30 34 33C31 36 29 39 27 43C25 40 24 36 24 33Z" fill="#ff7f8f"/>
  <path d="M17 23C15 20 13 18 9 16C13 15 17 16 20 18C20 15 21 12 23 10C24 13 24 17 22 20C21 21 19 22 17 23Z" fill="#ff9eaf"/>
</svg>
